<svg width="330" height="116" viewBox="0 0 330 116" fill="none" xmlns="http://www.w3.org/2000/svg">
<g opacity="0.3">
<path d="M322.852 109.35C322.408 109.844 321.902 110.278 321.343 110.643C319.615 111.728 317.504 112.125 315.401 111.759C313.298 111.393 311.347 110.289 309.909 108.653C308.471 107.016 307.644 104.958 307.581 102.859C307.518 100.76 308.223 98.7641 309.566 97.2403C310.699 95.9876 312.217 95.138 313.914 94.806C315.713 94.4413 317.623 94.6687 319.364 95.4548C321.105 96.2409 322.586 97.5444 323.588 99.1738C324.591 100.803 325.063 102.673 324.935 104.508C324.807 106.344 324.085 108.049 322.876 109.372L322.852 109.35ZM310.361 97.9645C309.162 99.2642 308.504 100.982 308.508 102.806C308.511 104.63 309.174 106.439 310.377 107.903C311.581 109.367 313.244 110.39 315.064 110.784C316.885 111.179 318.742 110.92 320.297 110.054C321.852 109.188 323.003 107.773 323.539 106.066C324.075 104.359 323.962 102.474 323.22 100.753C322.477 99.0326 321.155 97.5907 319.493 96.6901C317.832 95.7895 315.942 95.4899 314.166 95.8458C312.682 96.1331 311.354 96.8725 310.361 97.9645Z" fill="#008E2C"/>
<path d="M324.339 108.82C323.292 109.957 321.929 110.764 320.4 111.151C320.276 111.176 320.144 111.155 320.028 111.092C319.912 111.029 319.82 110.929 319.768 110.809C319.716 110.689 319.708 110.557 319.745 110.438C319.782 110.319 319.861 110.22 319.97 110.159C320.227 110.03 320.473 109.891 320.709 109.743C322.163 108.802 323.201 107.359 323.642 105.665C324.082 103.972 323.897 102.136 323.118 100.479C322.339 98.8213 321.016 97.4484 319.381 96.6001C317.746 95.7517 315.902 95.482 314.173 95.838L313.98 95.8854L313.795 95.9403C313.669 95.9722 313.532 95.9558 313.411 95.8944C313.29 95.833 313.193 95.7308 313.138 95.6074C313.083 95.4832 313.074 95.3461 313.115 95.2228C313.155 95.0994 313.241 94.9987 313.357 94.9403C315.139 94.0507 317.226 93.8387 319.249 94.3418C321.272 94.8449 323.102 96.0307 324.415 97.6902C325.728 99.3496 326.44 101.376 326.426 103.412C326.413 105.448 325.673 107.363 324.339 108.82ZM319.513 95.5233C321.62 96.5226 323.307 98.2754 324.214 100.407C325.121 102.539 325.176 104.88 324.366 106.931C325.238 105.455 325.542 103.688 325.228 101.931C324.914 100.174 324.001 98.538 322.645 97.3025C321.74 96.4819 320.667 95.8723 319.513 95.5233Z" fill="#008E2C"/>
<path d="M317.47 111.289C317.377 111.388 317.245 111.444 317.104 111.444C317.033 111.445 316.962 111.432 316.895 111.406C316.827 111.38 316.764 111.341 316.71 111.292C316.656 111.243 316.612 111.184 316.58 111.119C316.547 111.054 316.528 110.985 316.522 110.914L315.24 95.2603C315.234 95.1899 315.242 95.1201 315.264 95.0548C315.286 94.9894 315.321 94.9299 315.366 94.8796C315.412 94.8293 315.468 94.7892 315.531 94.7616C315.594 94.7339 315.663 94.7193 315.734 94.7186C315.804 94.7178 315.875 94.7309 315.943 94.7571C316.01 94.7834 316.073 94.8222 316.127 94.8714C316.181 94.9206 316.225 94.9793 316.258 95.044C316.29 95.1087 316.309 95.1783 316.315 95.2486L317.598 110.903C317.61 111.047 317.564 111.186 317.47 111.289Z" fill="#008E2C"/>
<path d="M316.15 111.076C316.105 111.128 316.05 111.17 315.987 111.199C315.924 111.228 315.855 111.245 315.784 111.247C315.642 111.246 315.502 111.19 315.394 111.091C315.285 110.992 315.217 110.858 315.203 110.717L313.927 95.055C313.919 94.985 313.926 94.9152 313.946 94.8498C313.967 94.7844 314.001 94.7249 314.047 94.6748C314.092 94.6248 314.148 94.5853 314.212 94.5588C314.275 94.5324 314.344 94.5194 314.414 94.5209C314.485 94.5198 314.556 94.5328 314.624 94.5589C314.691 94.585 314.754 94.6238 314.808 94.6731C314.862 94.7224 314.906 94.7811 314.939 94.846C314.971 94.9108 314.99 94.9805 314.996 95.051L316.278 110.705C316.284 110.774 316.276 110.843 316.254 110.907C316.232 110.971 316.196 111.029 316.15 111.076Z" fill="#008E2C"/>
</g>
<path d="M11 9.5C13.2543 9.5 15.4163 10.3955 17.0104 11.9896C18.6045 13.5837 19.5 15.7457 19.5 18C19.5 20.2543 18.6045 22.4163 17.0104 24.0104C15.4163 25.6045 13.2543 26.5 11 26.5L11 18L11 9.5Z" fill="#008E2C"/>
<path d="M47.5 92C49.7543 92 51.9163 92.8955 53.5104 94.4896C55.1045 96.0837 56 98.2457 56 100.5C56 102.754 55.1045 104.916 53.5104 106.51C51.9163 108.104 49.7543 109 47.5 109L47.5 100.5L47.5 92Z" fill="#008E2C"/>
<path d="M10 26.5C7.74566 26.5 5.58365 25.6045 3.98959 24.0104C2.39553 22.4163 1.5 20.2543 1.5 18C1.5 15.7457 2.39553 13.5837 3.98959 11.9896C5.58365 10.3955 7.74566 9.5 10 9.5L10 18L10 26.5Z" fill="#008E2C"/>
<path d="M46.5 109C44.2457 109 42.0837 108.104 40.4896 106.51C38.8955 104.916 38 102.754 38 100.5C38 98.2457 38.8955 96.0837 40.4896 94.4896C42.0837 92.8955 44.2457 92 46.5 92L46.5 100.5L46.5 109Z" fill="#008E2C"/>
<g opacity="0.3">
<path d="M68.8519 27.7401C68.4082 28.2341 67.9017 28.6683 67.3435 29.0331C65.6151 30.1187 63.5038 30.5153 61.4011 30.1494C59.2985 29.7835 57.3471 28.6799 55.909 27.0433C54.4708 25.4067 53.6436 23.3482 53.5805 21.2495C53.5175 19.1509 54.2231 17.1545 55.5663 15.6307C56.699 14.378 58.2165 13.5284 59.9144 13.1964C61.7131 12.8317 63.6232 13.0591 65.3643 13.8452C67.1054 14.6313 68.5859 15.9348 69.5884 17.5642C70.591 19.1937 71.0628 21.0633 70.9347 22.8988C70.8066 24.7343 70.0852 26.4389 68.8765 27.7625L68.8519 27.7401ZM56.3608 16.3549C55.1621 17.6546 54.5045 19.3727 54.5075 21.1967C54.5106 23.0206 55.1741 24.8292 56.3775 26.2933C57.5808 27.7575 59.244 28.78 61.0644 29.1748C62.8848 29.5697 64.7416 29.3106 66.2969 28.4447C67.8521 27.5788 69.0026 26.1637 69.539 24.4568C70.0754 22.7498 69.9621 20.8645 69.2196 19.1437C68.4772 17.423 67.1549 15.9811 65.4935 15.0805C63.832 14.1798 61.9416 13.8802 60.1663 14.2362C58.6818 14.5235 57.3537 15.2629 56.3608 16.3549Z" fill="#008E2C"/>
<path d="M70.3392 27.21C69.2924 28.3477 67.9294 29.1544 66.3995 29.5417C66.2756 29.5662 66.1438 29.5452 66.0279 29.4824C65.9121 29.4195 65.8198 29.319 65.7678 29.199C65.7159 29.0791 65.7076 28.9476 65.7446 28.8284C65.7816 28.7092 65.8614 28.6101 65.9696 28.5491C66.2268 28.4204 66.4732 28.2818 66.7086 28.1332C68.1631 27.1927 69.2014 25.7494 69.6418 24.0558C70.0823 22.3622 69.8968 20.5262 69.1179 18.8689C68.3389 17.2117 67.0161 15.8388 65.3809 14.9904C63.7457 14.1421 61.9022 13.8723 60.173 14.2283L59.9798 14.2758L59.7948 14.3306C59.669 14.3626 59.5324 14.3462 59.4113 14.2848C59.2902 14.2234 59.193 14.1212 59.1385 13.9978C59.0828 13.8736 59.0742 13.7365 59.1146 13.6131C59.1549 13.4898 59.2412 13.3891 59.3567 13.3307C61.1393 12.441 63.2261 12.2291 65.2492 12.7322C67.2723 13.2353 69.1017 14.4211 70.4148 16.0806C71.7279 17.74 72.4403 19.7665 72.4265 21.8026C72.4127 23.8388 71.6735 25.7538 70.3392 27.21ZM65.5133 13.9137C67.6202 14.913 69.3073 16.6658 70.2141 18.7974C71.121 20.9291 71.1756 23.2704 70.3664 25.3211C71.2377 23.8458 71.5424 22.0782 71.2284 20.3215C70.9144 18.5648 70.0012 16.9284 68.6453 15.6928C67.7398 14.8723 66.6667 14.2627 65.5133 13.9137Z" fill="#008E2C"/>
<path d="M63.4702 29.6796C63.377 29.7788 63.2453 29.8345 63.104 29.8346C63.0333 29.8357 62.9621 29.8228 62.8946 29.7967C62.827 29.7705 62.7644 29.7317 62.7103 29.6824C62.6563 29.6332 62.6118 29.5744 62.5796 29.5095C62.5473 29.4447 62.5279 29.375 62.5224 29.3046L61.24 13.6507C61.2342 13.5803 61.2424 13.5104 61.2641 13.4451C61.2858 13.3798 61.3205 13.3203 61.3664 13.27C61.4122 13.2197 61.4683 13.1796 61.5313 13.152C61.5943 13.1243 61.6631 13.1097 61.7337 13.1089C61.8043 13.1082 61.8754 13.1213 61.9428 13.1475C62.0102 13.1737 62.0727 13.2126 62.1267 13.2618C62.1807 13.311 62.2252 13.3697 62.2575 13.4344C62.2899 13.4991 62.3095 13.5686 62.3153 13.639L63.5977 29.2929C63.6098 29.4372 63.5639 29.5762 63.4702 29.6796Z" fill="#008E2C"/>
<path d="M62.1495 29.4668C62.1048 29.5187 62.0495 29.5604 61.9869 29.5896C61.9242 29.6188 61.8554 29.6349 61.7845 29.637C61.6424 29.6363 61.5022 29.5806 61.3937 29.4817C61.2851 29.3827 61.2167 29.2483 61.2029 29.1069L59.9274 13.4454C59.9195 13.3754 59.926 13.3056 59.9465 13.2402C59.967 13.1748 60.0011 13.1153 60.0467 13.0652C60.0923 13.0152 60.1485 12.9757 60.2117 12.9492C60.2749 12.9227 60.3438 12.9098 60.4142 12.9113C60.4849 12.9102 60.5561 12.9231 60.6236 12.9493C60.6912 12.9754 60.7538 13.0142 60.8079 13.0635C60.8619 13.1128 60.9064 13.1715 60.9386 13.2364C60.9709 13.3012 60.9903 13.3709 60.9958 13.4414L62.2782 29.0953C62.2845 29.1645 62.2762 29.2333 62.2541 29.2972C62.2319 29.3611 62.1963 29.4189 62.1495 29.4668Z" fill="#008E2C"/>
</g>
<g opacity="0.3">
<path d="M272.852 19.3497C272.408 19.8437 271.902 20.2779 271.343 20.6427C269.615 21.7283 267.504 22.1249 265.401 21.759C263.298 21.3931 261.347 20.2895 259.909 18.6529C258.471 17.0163 257.644 14.9578 257.581 12.8591C257.518 10.7605 258.223 8.76411 259.566 7.2403C260.699 5.98758 262.217 5.13799 263.914 4.80605C265.713 4.44134 267.623 4.66873 269.364 5.45484C271.105 6.24095 272.586 7.54437 273.588 9.17383C274.591 10.8033 275.063 12.6729 274.935 14.5084C274.807 16.3439 274.085 18.0485 272.876 19.3721L272.852 19.3497ZM260.361 7.96447C259.162 9.26423 258.504 10.9823 258.508 12.8063C258.511 14.6302 259.174 16.4388 260.377 17.903C261.581 19.3671 263.244 20.3896 265.064 20.7845C266.885 21.1793 268.742 20.9202 270.297 20.0543C271.852 19.1884 273.003 17.7733 273.539 16.0664C274.075 14.3594 273.962 12.4741 273.22 10.7534C272.477 9.03259 271.155 7.59074 269.493 6.6901C267.832 5.78945 265.942 5.48987 264.166 5.84582C262.682 6.13311 261.354 6.87247 260.361 7.96447Z" fill="#008E2C"/>
<path d="M274.339 18.8197C273.292 19.9573 271.929 20.764 270.4 21.1513C270.276 21.1759 270.144 21.1548 270.028 21.092C269.912 21.0291 269.82 20.9286 269.768 20.8087C269.716 20.6887 269.708 20.5572 269.745 20.438C269.782 20.3188 269.861 20.2197 269.97 20.1588C270.227 20.0301 270.473 19.8914 270.709 19.7428C272.163 18.8023 273.201 17.359 273.642 15.6654C274.082 13.9718 273.897 12.1358 273.118 10.4786C272.339 8.82131 271.016 7.44841 269.381 6.60007C267.746 5.75172 265.902 5.48196 264.173 5.83797L263.98 5.88538L263.795 5.94026C263.669 5.97217 263.532 5.95585 263.411 5.89442C263.29 5.833 263.193 5.73079 263.138 5.60742C263.083 5.48323 263.074 5.3461 263.115 5.22276C263.155 5.09941 263.241 4.99871 263.357 4.94028C265.139 4.05066 267.226 3.83871 269.249 4.34181C271.272 4.84491 273.102 6.03074 274.415 7.69018C275.728 9.34962 276.44 11.3761 276.426 13.4122C276.413 15.4484 275.673 17.3634 274.339 18.8197ZM269.513 5.5233C271.62 6.52264 273.307 8.27543 274.214 10.4071C275.121 12.5387 275.176 14.88 274.366 16.9308C275.238 15.4554 275.542 13.6879 275.228 11.9311C274.914 10.1744 274.001 8.53797 272.645 7.30245C271.74 6.48193 270.667 5.87233 269.513 5.5233Z" fill="#008E2C"/>
<path d="M267.47 21.2892C267.377 21.3884 267.245 21.4441 267.104 21.4442C267.033 21.4453 266.962 21.4324 266.895 21.4063C266.827 21.3802 266.764 21.3413 266.71 21.2921C266.656 21.2428 266.612 21.184 266.58 21.1192C266.547 21.0543 266.528 20.9846 266.522 20.9142L265.24 5.26028C265.234 5.1899 265.242 5.12006 265.264 5.05475C265.286 4.98944 265.321 4.92994 265.366 4.87964C265.412 4.82934 265.468 4.78922 265.531 4.76159C265.594 4.73395 265.663 4.71933 265.734 4.71857C265.804 4.7178 265.875 4.73091 265.943 4.75713C266.01 4.78336 266.073 4.82219 266.127 4.87141C266.181 4.92063 266.225 4.97928 266.258 5.044C266.29 5.10873 266.309 5.17826 266.315 5.24863L267.598 20.9025C267.61 21.0468 267.564 21.1858 267.47 21.2892Z" fill="#008E2C"/>
<path d="M266.15 21.0764C266.105 21.1283 266.05 21.17 265.987 21.1992C265.924 21.2285 265.855 21.2445 265.784 21.2466C265.642 21.2459 265.502 21.1902 265.394 21.0913C265.285 20.9923 265.217 20.8579 265.203 20.7165L263.927 5.05498C263.919 4.98503 263.926 4.91519 263.946 4.84981C263.967 4.78442 264.001 4.72487 264.047 4.67483C264.092 4.62478 264.148 4.5853 264.212 4.55882C264.275 4.53235 264.344 4.51944 264.414 4.5209C264.485 4.51985 264.556 4.53275 264.624 4.55888C264.691 4.585 264.754 4.62382 264.808 4.6731C264.862 4.72238 264.906 4.78114 264.939 4.84599C264.971 4.91085 264.99 4.98051 264.996 5.05097L266.278 20.7049C266.284 20.7741 266.276 20.8429 266.254 20.9068C266.232 20.9708 266.196 21.0285 266.15 21.0764Z" fill="#008E2C"/>
</g>
<g opacity="0.3">
<path d="M317.436 35.4736C317.327 37.0279 316.767 38.4775 315.831 39.6546L315.816 39.6409L315.48 40.0156C315.066 40.4761 314.594 40.8811 314.074 41.2217C313.589 41.526 313.071 41.7728 312.529 41.9599C312.877 41.8289 313.214 41.6725 313.54 41.4912C315.208 40.5627 316.442 39.0446 317.016 37.2163C317.59 35.3892 317.466 33.3804 316.679 31.5553C315.891 29.7306 314.491 28.2041 312.732 27.2505C310.973 26.2971 308.965 25.9757 307.07 26.3553C305.483 26.6626 304.059 27.454 302.992 28.6268C302.331 29.3444 301.824 30.1796 301.488 31.0863C301.802 30.1613 302.292 29.308 302.939 28.5733C303.997 27.4041 305.417 26.6083 307.01 26.2968L307.01 26.2968L307.014 26.2961C308.705 25.9531 310.509 26.1657 312.159 26.9105C313.808 27.6555 315.212 28.8914 316.163 30.4358C317.113 31.9802 317.556 33.7466 317.436 35.4736Z" fill="#008E2C" stroke="#008E2C"/>
<path d="M313.975 41.1656L313.975 41.1657L313.98 41.1627C315.541 40.1535 316.654 38.6046 317.126 36.7913C317.597 34.9791 317.396 33.0235 316.57 31.2659C315.744 29.5086 314.343 28.0548 312.611 27.1562C310.879 26.2575 308.919 25.968 307.072 26.3482L307.063 26.3501L307.054 26.3524L306.861 26.3998L306.849 26.4026L306.838 26.406L306.669 26.4561C306.664 26.4565 306.652 26.4561 306.637 26.4485C306.618 26.4388 306.603 26.4224 306.596 26.4053L306.596 26.4053L306.595 26.4027C306.591 26.3937 306.59 26.387 306.59 26.3829C308.258 25.553 310.219 25.3521 312.129 25.827C314.043 26.303 315.777 27.4263 317.023 29.0004C318.268 30.5744 318.94 32.4912 318.927 34.4088C318.913 36.3251 318.218 38.1197 316.971 39.4814C315.996 40.5407 314.727 41.2953 313.298 41.6613C313.291 41.6614 313.28 41.66 313.266 41.6525C313.248 41.6425 313.234 41.6263 313.227 41.6099L312.769 41.808L313.227 41.6099C313.223 41.6018 313.222 41.5956 313.222 41.5916C313.483 41.4598 313.734 41.3178 313.975 41.1656ZM312.658 26.0447L312.299 26.9751C314.296 27.9224 315.895 29.5845 316.754 31.6028C317.612 33.6204 317.66 35.8254 316.901 37.7472L317.797 38.185C318.732 36.6021 319.055 34.7123 318.721 32.8432C318.387 30.9748 317.417 29.2404 315.982 27.9329L315.981 27.9319C315.022 27.0624 313.883 26.4155 312.658 26.0447Z" fill="#008E2C" stroke="#008E2C"/>
<path d="M310.099 41.9442C310.099 41.9442 310.099 41.9442 310.099 41.9443L310.097 41.9443C310.092 41.9444 310.084 41.9435 310.075 41.9399C310.066 41.9363 310.056 41.9305 310.047 41.9225C310.038 41.9145 310.032 41.9054 310.027 41.8965C310.023 41.8877 310.021 41.8803 310.021 41.8754L310.021 41.8734L308.738 26.2195L308.242 26.2601L308.738 26.2194C308.738 26.2191 308.738 26.2188 308.738 26.2186C308.739 26.2185 308.739 26.2185 308.739 26.2185C308.744 26.2185 308.752 26.2195 308.762 26.2231C308.771 26.2268 308.781 26.2328 308.79 26.2409C308.799 26.2491 308.806 26.2584 308.81 26.2675C308.815 26.2766 308.817 26.2843 308.817 26.2895L310.099 41.9434L310.099 41.9442Z" fill="#008E2C" stroke="#008E2C"/>
<path d="M307.421 25.9988L307.421 25.9988L307.421 25.9988ZM307.421 25.9988L307.421 25.9988L307.421 25.9988ZM307.497 26.0918L308.779 41.74L308.775 41.7453C308.762 41.7426 308.746 41.7357 308.731 41.7218C308.711 41.7039 308.703 41.6835 308.701 41.6698L307.426 26.021C307.431 26.0215 307.437 26.0227 307.443 26.0252L307.624 25.5589L307.443 26.0252C307.453 26.0288 307.462 26.0346 307.471 26.0426C307.48 26.0507 307.487 26.0597 307.491 26.0686L307.939 25.846L307.491 26.0686C307.495 26.0775 307.497 26.0849 307.497 26.0898L307.497 26.0918Z" fill="#008E2C" stroke="#008E2C"/>
</g>
<g opacity="0.3">
<path d="M15.9583 65.2504L7.48535 57.3266L13.9069 50.7657C14.4393 50.2225 15.0759 49.7871 15.7805 49.4844C16.4851 49.1817 17.2437 49.0175 18.0132 49.0013C18.7827 48.9851 19.5478 49.1172 20.2651 49.39C20.9823 49.6629 21.6375 50.0711 22.1933 50.5913C22.7492 51.1116 23.1947 51.7338 23.5044 52.4223C23.8142 53.1109 23.9821 53.8523 23.9987 54.6043C24.0153 55.3563 23.8801 56.1041 23.601 56.805C23.3218 57.506 22.9041 58.1463 22.3717 58.6895L15.9583 65.2504ZM8.66102 57.3266L15.9583 64.149L21.8204 58.1586C22.3004 57.6947 22.6805 57.1414 22.938 56.5315C23.1955 55.9216 23.3254 55.2674 23.3198 54.6076C23.3142 53.9478 23.1733 53.2958 22.9055 52.6902C22.6377 52.0845 22.2483 51.5374 21.7605 51.0813C21.2726 50.6252 20.6962 50.2693 20.0652 50.0347C19.4342 49.8 18.7615 49.6913 18.0867 49.7151C17.412 49.7389 16.7491 49.8945 16.137 50.173C15.5249 50.4514 14.9761 50.8469 14.5231 51.3362L8.66102 57.3266Z" fill="#008E2C"/>
<path d="M5.84747 72.9998C4.70135 72.9986 3.58081 72.6685 2.62484 72.0507C1.66886 71.4328 0.919497 70.5543 0.469685 69.5241C0.0198736 68.4939 -0.110597 67.3573 0.0944519 66.2553C0.299501 65.1533 0.831052 64.1343 1.62318 63.3248L8.04475 56.7639L16.5177 64.6877L10.0961 71.2486C9.54639 71.8068 8.88629 72.2499 8.15591 72.5509C7.42553 72.8519 6.64013 73.0047 5.84747 72.9998ZM8.06097 57.8812L2.19885 63.8716C1.34113 64.8286 0.894595 66.0723 0.952375 67.3433C1.01015 68.6142 1.56779 69.8143 2.50897 70.6932C3.45015 71.5721 4.70221 72.062 6.004 72.0607C7.30579 72.0593 8.55679 71.5669 9.49609 70.6861L15.3501 64.7036L8.06097 57.8812Z" fill="#008E2C"/>
</g>
<g opacity="0.3">
<path d="M280.958 86.2504L272.485 78.3266L278.907 71.7657C279.439 71.2225 280.076 70.7871 280.781 70.4844C281.485 70.1817 282.244 70.0175 283.013 70.0013C283.783 69.9851 284.548 70.1172 285.265 70.39C285.982 70.6629 286.638 71.0711 287.193 71.5913C287.749 72.1116 288.195 72.7338 288.504 73.4223C288.814 74.1109 288.982 74.8523 288.999 75.6043C289.015 76.3563 288.88 77.1041 288.601 77.805C288.322 78.506 287.904 79.1463 287.372 79.6895L280.958 86.2504ZM273.661 78.3266L280.958 85.149L286.82 79.1586C287.3 78.6947 287.68 78.1414 287.938 77.5315C288.196 76.9216 288.325 76.2674 288.32 75.6076C288.314 74.9478 288.173 74.2958 287.905 73.6902C287.638 73.0845 287.248 72.5374 286.76 72.0813C286.273 71.6252 285.696 71.2693 285.065 71.0347C284.434 70.8 283.761 70.6913 283.087 70.7151C282.412 70.7389 281.749 70.8945 281.137 71.173C280.525 71.4514 279.976 71.8469 279.523 72.3362L273.661 78.3266Z" fill="#008E2C"/>
<path d="M270.847 93.9998C269.701 93.9986 268.581 93.6685 267.625 93.0507C266.669 92.4328 265.919 91.5543 265.47 90.5241C265.02 89.4939 264.889 88.3573 265.094 87.2553C265.3 86.1533 265.831 85.1343 266.623 84.3248L273.045 77.7639L281.518 85.6877L275.096 92.2486C274.546 92.8068 273.886 93.2499 273.156 93.5509C272.426 93.8519 271.64 94.0047 270.847 93.9998ZM273.061 78.8812L267.199 84.8716C266.341 85.8286 265.895 87.0723 265.952 88.3433C266.01 89.6142 266.568 90.8143 267.509 91.6932C268.45 92.5721 269.702 93.062 271.004 93.0607C272.306 93.0593 273.557 92.5669 274.496 91.6861L280.35 85.7036L273.061 78.8812Z" fill="#008E2C"/>
</g>
</svg>
