<svg width="24" height="24" viewBox="0 0 24 24" fill="none" xmlns="http://www.w3.org/2000/svg">
<path d="M16.0829 8.69531C15.7007 8.69531 15.3909 8.94695 15.3909 9.25737V19.8803C15.3909 20.1906 15.7007 20.4424 16.0829 20.4424C16.4652 20.4424 16.7749 20.1906 16.7749 19.8803V9.25737C16.7749 8.94695 16.4652 8.69531 16.0829 8.69531ZM7.91689 8.69531C7.53468 8.69531 7.22485 8.94695 7.22485 9.25737V19.8803C7.22485 20.1906 7.53468 20.4424 7.91689 20.4424C8.29917 20.4424 8.60892 20.1906 8.60892 19.8803V9.25737C8.60892 8.94695 8.29917 8.69531 7.91689 8.69531Z" fill="#008E2C"/>
<path d="M1.96547 7.14503V20.993C1.96547 21.8115 2.33502 22.5801 2.98055 23.1316C3.29841 23.4053 3.68161 23.6234 4.10674 23.7727C4.53187 23.922 4.99001 23.9993 5.45319 24H18.5467C19.0099 23.9994 19.4681 23.922 19.8932 23.7727C20.3184 23.6234 20.7016 23.4053 21.0194 23.1316C21.665 22.5801 22.0345 21.8115 22.0345 20.993V7.14503C23.3177 6.86839 24.1492 5.86151 23.9776 4.79208C23.8057 3.72282 22.6841 2.92301 21.3562 2.92278H17.8131V2.22021C17.815 1.92773 17.7455 1.63785 17.6084 1.36739C17.4713 1.09693 17.2694 0.851275 17.0145 0.644699C16.7595 0.438143 16.4565 0.274792 16.1232 0.164131C15.7898 0.0534697 15.4327 -0.00229572 15.0725 7.28573e-05H8.92747C8.56733 -0.00230318 8.2102 0.0534586 7.87681 0.16412C7.54342 0.274781 7.24043 0.438136 6.98542 0.644699C6.73048 0.851275 6.52862 1.09693 6.39153 1.36739C6.25445 1.63785 6.18489 1.92773 6.18688 2.22021V2.92278H2.64381C1.31593 2.92301 0.194351 3.72282 0.0223808 4.79208C-0.149244 5.86151 0.682235 6.86839 1.96547 7.14503ZM18.5467 22.8759H5.45326C4.27002 22.8759 3.34954 22.0503 3.34954 20.993V7.19444H20.6504V20.993C20.6504 22.0504 19.73 22.8759 18.5467 22.8759ZM7.57095 2.22021C7.56869 2.0753 7.60229 1.9315 7.66977 1.79734C7.73724 1.66319 7.83721 1.5414 7.96375 1.43923C8.09024 1.33699 8.24072 1.25643 8.40626 1.20231C8.57181 1.1482 8.74905 1.12163 8.92747 1.12419H15.0725C15.251 1.12163 15.4282 1.1482 15.5937 1.20231C15.7593 1.25643 15.9098 1.33699 16.0363 1.43923C16.1628 1.5414 16.2628 1.66318 16.3302 1.79734C16.3977 1.9315 16.4313 2.0753 16.429 2.22021V2.92278H7.57095V2.22021ZM2.64381 4.0469H21.3563C22.0443 4.0469 22.602 4.49987 22.602 5.05861C22.602 5.61735 22.0443 6.07032 21.3563 6.07032H2.64374C1.95579 6.07032 1.39808 5.61735 1.39808 5.05861C1.39808 4.49987 1.95585 4.0469 2.64381 4.0469Z" fill="#008E2C"/>
<path d="M11.9999 8.69531C11.6177 8.69531 11.3079 8.94695 11.3079 9.25737V19.8803C11.3079 20.1906 11.6177 20.4424 11.9999 20.4424C12.3822 20.4424 12.6919 20.1906 12.6919 19.8803V9.25737C12.6919 8.94695 12.3822 8.69531 11.9999 8.69531Z" fill="#008E2C"/>
</svg>
