<svg width="300" height="300" viewBox="0 0 300 300" fill="none" xmlns="http://www.w3.org/2000/svg">
<path d="M94.8528 170.294C96.1764 168.971 96.1764 166.765 94.8528 165.441L84.2646 154.853L97.9411 141.177C99.2646 139.853 99.2646 137.647 97.9411 136.324C96.6175 135 94.4117 135 93.0881 136.324L79.4117 150L67.0587 137.647C65.7352 136.324 63.5293 136.324 62.2058 137.647C60.8823 138.971 60.8823 141.177 62.2058 142.5L74.5587 154.853L62.2058 167.206C60.8823 168.53 60.8823 170.735 62.2058 172.059C63.5293 173.383 65.7352 173.383 67.0587 172.059L79.4117 159.706L89.9999 170.294C91.7646 171.618 93.5293 171.618 94.8528 170.294Z" fill="#008E2C"/>
<path d="M93.5294 213.971C92.2058 215.294 92.2058 217.5 93.9705 218.824C95.2941 220.147 97.5 220.147 98.8235 218.382C120.441 194.559 157.5 195 178.676 217.059C180 218.382 182.206 218.382 183.529 217.059C184.853 215.735 184.853 213.529 183.529 212.206C159.265 187.5 117.794 187.059 93.5294 213.971Z" fill="#008E2C"/>
<path d="M258.529 240.441L270 123.529C270.441 118.676 268.676 113.823 265.588 110.294C262.5 106.765 257.647 104.559 252.794 104.559V74.1175C252.794 62.6469 243.971 53.3822 232.5 52.941L46.7647 50.2939C34.853 50.2939 26.0294 59.5587 25.5882 70.5881V78.5292C20.2941 79.8528 16.3235 83.3822 14.1177 88.6763C11.4706 91.7645 9.70589 95.7351 8.82354 98.8234C6.61766 106.765 7.05883 115.147 7.94119 123.529C11.4706 162.353 15 200.735 18.0882 239.559C19.4118 256.323 23.8235 263.382 48.0882 264.706C117.353 268.235 186.618 267.794 255.882 266.47C258.529 266.47 261.618 266.47 263.824 265.147C266.471 263.823 268.235 261.176 267.794 258.529C266.471 252.794 256.765 253.676 251.029 253.235C255 250.588 257.647 246.176 258.529 240.441ZM46.7647 57.3528L232.5 59.9998C240 59.9998 246.618 66.6175 246.176 74.1175V105H181.324C176.471 105 171.618 102.794 168.088 99.2645L157.941 87.7939C152.647 82.0587 145.147 78.5292 137.206 78.5292H32.2059V71.4704C32.2059 63.0881 38.8235 56.9116 46.7647 57.3528ZM241.324 249.706H42.353C37.0588 249.706 32.2059 245.735 31.7647 240L18.9706 96.1763C18.5294 89.9998 23.3824 84.7057 29.5588 84.7057H137.206C143.382 84.7057 149.118 87.3528 153.088 91.7645L163.235 103.235C167.647 108.529 174.265 111.617 181.324 111.617H252.794C255.882 111.617 258.529 112.941 260.735 115.147C262.941 117.353 263.824 120.441 263.382 123.088L251.912 240C251.471 245.294 246.618 249.706 241.324 249.706Z" fill="#008E2C"/>
<path d="M195 149.117L204.706 139.412C206.029 138.088 206.029 135.882 204.706 134.559C203.382 133.235 201.176 133.235 199.853 134.559L190.147 144.265L177.794 131.912C176.471 130.588 174.265 130.588 172.941 131.912C171.618 133.235 171.618 135.441 172.941 136.765L185.294 149.117L173.823 160.588C172.5 161.912 172.5 164.117 173.823 165.441C175.147 166.765 177.353 166.765 178.676 165.441L190.147 153.97L202.5 166.323C203.823 167.647 206.029 167.647 207.353 166.323C208.676 165 208.676 162.794 207.353 161.47L195 149.117Z" fill="#008E2C"/>
<path d="M255 33.5293C251.029 38.8235 247.941 44.1176 245.735 50.294C245.294 52.0587 246.176 53.8235 247.941 54.2646C249.706 54.7058 251.471 53.8235 251.912 52.0588C253.676 46.7646 256.323 41.4705 259.853 37.0587C261.176 35.7352 260.735 33.5293 259.412 32.2058C258.088 32.2058 256.323 32.2058 255 33.5293Z" fill="#008E2C"/>
<path d="M283.235 46.3234C282.353 44.9999 280.147 44.1176 278.824 45.4411L258.088 58.6764C256.765 59.5587 256.324 61.7646 257.206 63.0882C258.088 64.4117 260.294 65.294 261.618 63.9705L282.353 50.7352C283.676 49.8529 284.118 47.647 283.235 46.3234Z" fill="#008E2C"/>
<path d="M289.412 70.147L266.029 71.9117C264.265 71.9117 262.941 73.6764 262.941 75.4411C262.941 77.2058 264.706 78.5293 266.471 78.5293L289.853 76.7646C291.618 76.7646 292.941 74.9999 292.941 73.2352C292.5 71.4705 291.176 70.147 289.412 70.147Z" fill="#008E2C"/>
</svg>
