<svg width="24" height="24" viewBox="0 0 24 24" fill="none" xmlns="http://www.w3.org/2000/svg">
<path fill-rule="evenodd" clip-rule="evenodd" d="M9.64 13.0001H12.61L13.36 10.0001H10.39L9.64 13.0001ZM12.5 16.0001C12.4241 16.0001 12.3491 15.9828 12.2809 15.9495C12.2126 15.9161 12.1528 15.8677 12.1061 15.8079C12.0593 15.748 12.0268 15.6783 12.0111 15.604C11.9953 15.5297 11.9966 15.4528 12.015 15.3791L12.36 14.0001H9.39L8.986 15.6211C8.97011 15.6849 8.94182 15.7449 8.90274 15.7977C8.86366 15.8505 8.81456 15.8951 8.75824 15.929C8.70192 15.9628 8.63949 15.9852 8.5745 15.995C8.50952 16.0047 8.44326 16.0015 8.3795 15.9856C8.31574 15.9697 8.25574 15.9414 8.20292 15.9023C8.1501 15.8633 8.10549 15.8142 8.07164 15.7578C8.00328 15.6441 7.98291 15.5079 8.015 15.3791L8.36 14.0001H7.5C7.36739 14.0001 7.24021 13.9474 7.14645 13.8537C7.05268 13.7599 7 13.6327 7 13.5001C7 13.3675 7.05268 13.2403 7.14645 13.1466C7.24021 13.0528 7.36739 13.0001 7.5 13.0001H8.61L9.36 10.0001H7.5C7.36739 10.0001 7.24021 9.94743 7.14645 9.85366C7.05268 9.75989 7 9.63272 7 9.50011C7 9.3675 7.05268 9.24032 7.14645 9.14655C7.24021 9.05279 7.36739 9.00011 7.5 9.00011H9.61L10.015 7.37911C10.0471 7.25035 10.129 7.13961 10.2428 7.07125C10.3565 7.00289 10.4927 6.98252 10.6215 7.01461C10.7503 7.0467 10.861 7.12863 10.9294 7.24237C10.9977 7.35611 11.0181 7.49235 10.986 7.62111L10.64 9.00011H13.609L14.014 7.37911C14.0461 7.25035 14.128 7.13961 14.2418 7.07125C14.3555 7.00289 14.4917 6.98252 14.6205 7.01461C14.7493 7.0467 14.86 7.12863 14.9284 7.24237C14.9967 7.35611 15.0171 7.49235 14.985 7.62111L14.64 9.00011H15.499C15.6316 9.00011 15.7588 9.05279 15.8526 9.14655C15.9463 9.24032 15.999 9.3675 15.999 9.50011C15.999 9.63272 15.9463 9.75989 15.8526 9.85366C15.7588 9.94743 15.6316 10.0001 15.499 10.0001H14.389L13.639 13.0001H15.499C15.6316 13.0001 15.7588 13.0528 15.8526 13.1466C15.9463 13.2403 15.999 13.3675 15.999 13.5001C15.999 13.6327 15.9463 13.7599 15.8526 13.8537C15.7588 13.9474 15.6316 14.0001 15.499 14.0001H13.389L12.985 15.6211C12.958 15.7293 12.8956 15.8254 12.8077 15.8941C12.7199 15.9628 12.6115 16.0001 12.5 16.0001Z" fill="#ACB7CA"/>
<path fill-rule="evenodd" clip-rule="evenodd" d="M4.002 7.77606C4.071 14.0521 6.526 18.3621 11.5 20.9391C16.474 18.3621 18.929 14.0521 18.998 7.77606L11.5 3.09005L4.002 7.77606ZM11.5 22.0001C11.4223 21.9998 11.3456 21.9816 11.276 21.9471C5.784 19.2011 3 14.3401 3 7.50006C3 7.41525 3.02157 7.33184 3.06268 7.25767C3.10379 7.1835 3.16309 7.121 3.235 7.07606L11.235 2.07605C11.3143 2.02605 11.4062 1.99951 11.5 1.99951C11.5938 1.99951 11.6857 2.02605 11.765 2.07605L19.765 7.07606C19.8369 7.121 19.8962 7.1835 19.9373 7.25767C19.9784 7.33184 20 7.41525 20 7.50006C20 14.3401 17.216 19.2011 11.724 21.9471C11.6544 21.9816 11.5777 21.9998 11.5 22.0001Z" fill="#ACB7CA"/>
</svg>
