<svg width="24" height="24" viewBox="0 0 24 24" fill="none" xmlns="http://www.w3.org/2000/svg">
<path d="M20.9075 13.9239V6.20769C20.9078 6.13479 20.8888 6.0631 20.8525 5.99989C20.8161 5.93668 20.7637 5.88419 20.7005 5.84774L10.6608 0.0554302C10.5978 0.0191173 10.5264 0 10.4538 0C10.3811 0 10.3097 0.0191173 10.2467 0.0554302L0.207008 5.84774C0.143829 5.88419 0.091409 5.93668 0.0550576 5.99989C0.0187061 6.0631 -0.000286364 6.13479 3.26359e-06 6.20769V17.7923C-0.000286364 17.8652 0.0187061 17.9369 0.0550576 18.0001C0.091409 18.0633 0.143829 18.1158 0.207008 18.1523L10.2467 23.9446C10.3097 23.9809 10.3811 24 10.4538 24C10.5264 24 10.5978 23.9809 10.6608 23.9446L14.4324 21.7683C14.9025 22.4265 15.5179 22.9678 16.2309 23.3503C16.9438 23.7328 17.7353 23.9462 18.5441 23.974C19.3528 24.0018 20.1571 23.8433 20.8947 23.5107C21.6324 23.1782 22.2835 22.6804 22.7978 22.0561C23.3121 21.4317 23.6757 20.6974 23.8606 19.9101C24.0454 19.1228 24.0465 18.3036 23.8637 17.5158C23.681 16.728 23.3193 15.9928 22.8067 15.3671C22.2941 14.7413 21.6442 14.2419 20.9075 13.9073V13.9239ZM10.4538 0.891178L19.6655 6.20769L15.0451 8.87215L6.49168 3.17914L10.4538 0.891178ZM10.4538 11.5242L1.24203 6.20769L5.69264 3.63839L14.2419 9.33554L10.4538 11.5242ZM0.828023 6.92345L10.0397 12.24V22.8689L0.828023 17.5523V6.92345ZM10.8678 22.8689V12.24L14.5939 10.0761V13.2991C14.5939 13.4089 14.6375 13.5141 14.7151 13.5917C14.7928 13.6693 14.8981 13.7129 15.0079 13.7129C15.1177 13.7129 15.223 13.6693 15.3006 13.5917C15.3783 13.5141 15.4219 13.4089 15.4219 13.2991V9.60033L20.0588 6.92345V13.6301C19.6203 13.5104 19.1678 13.4492 18.7133 13.4481C17.8173 13.4504 16.9368 13.6809 16.1548 14.1178C15.3727 14.5547 14.7151 15.1837 14.244 15.9452C13.7728 16.7067 13.5037 17.5757 13.4621 18.4701C13.4204 19.3645 13.6076 20.2547 14.006 21.0567L10.8678 22.8689ZM18.734 23.1709C17.8537 23.1709 16.9932 22.91 16.2613 22.4213C15.5294 21.9326 14.959 21.238 14.6221 20.4253C14.2853 19.6126 14.1971 18.7183 14.3689 17.8555C14.5406 16.9928 14.9645 16.2003 15.5869 15.5782C16.2093 14.9562 17.0023 14.5326 17.8657 14.361C18.729 14.1894 19.6239 14.2775 20.4371 14.6141C21.2504 14.9507 21.9455 15.5208 22.4345 16.2522C22.9235 16.9836 23.1846 17.8436 23.1846 18.7232C23.1835 19.9025 22.7142 21.0331 21.8798 21.867C21.0454 22.7008 19.914 23.1698 18.734 23.1709Z" fill="black"/>
<path d="M20.6995 16.5759L18.1327 19.9603L16.7871 18.3798C16.7163 18.2948 16.6146 18.2413 16.5043 18.2312C16.3941 18.2212 16.2843 18.2553 16.1992 18.326C16.1141 18.3968 16.0607 18.4985 16.0506 18.6086C16.0405 18.7188 16.0746 18.8285 16.1454 18.9135L17.8015 20.8912C17.8403 20.9366 17.8886 20.9731 17.9429 20.9981C17.9972 21.0231 18.0563 21.036 18.1161 21.036C18.1783 21.0341 18.2392 21.0183 18.2944 20.9896C18.3496 20.961 18.3976 20.9202 18.4349 20.8705L21.3123 17.0765C21.3662 17.0407 21.4109 16.9927 21.4429 16.9364C21.4749 16.8801 21.4932 16.8171 21.4964 16.7524C21.4996 16.6877 21.4875 16.6232 21.4612 16.5641C21.4349 16.5049 21.3951 16.4528 21.345 16.4118C21.2948 16.3708 21.2357 16.3422 21.1725 16.3282C21.1092 16.3142 21.0436 16.3152 20.9808 16.3311C20.918 16.3471 20.8599 16.3776 20.811 16.4201C20.7622 16.4626 20.724 16.516 20.6995 16.5759Z" fill="black"/>
</svg>
