<svg width="24" height="24" viewBox="0 0 24 24" fill="none" xmlns="http://www.w3.org/2000/svg">
<path d="M14.9915 16.807C14.9915 16.7888 14.9962 16.7556 15.0058 16.7071L16.3373 11.1665C16.3754 11.015 16.4625 10.8984 16.5986 10.8166C16.7346 10.7348 16.8908 10.694 17.0675 10.694C17.244 10.694 17.4004 10.7348 17.5364 10.8166C17.6725 10.8984 17.7595 11.015 17.7978 11.1665L19.1364 16.7071C19.1459 16.7556 19.1509 16.7888 19.1509 16.807C19.1509 16.9645 19.0732 17.1008 18.9182 17.2159C18.7631 17.3309 18.602 17.3882 18.4349 17.3882C18.2297 17.3882 18.1079 17.3007 18.0698 17.125L17.8265 15.9896H16.3159L16.0725 17.125C16.0342 17.3007 15.9125 17.3882 15.7074 17.3882C15.5402 17.3882 15.3791 17.3308 15.224 17.2159C15.0689 17.1009 14.9915 16.9645 14.9915 16.807H14.9915ZM16.5449 14.8997H17.5901L17.0675 12.4654L16.5449 14.8997Z" fill="#008E2C"/>
<path d="M20.5915 7.30505H15.8053V4.32464C15.8053 1.94004 14.2763 0 12.3968 0H3.40852C1.52906 0 0 1.94009 0 4.32464V9.40174C0 11.7537 1.48734 13.6731 3.33159 13.7255C3.31931 14.2186 3.27595 14.7681 3.20175 15.3665C3.15159 15.7705 3.27009 16.1676 3.51839 16.4287C3.68498 16.6039 3.88805 16.695 4.09552 16.695C4.19878 16.695 4.30317 16.6722 4.4048 16.6262C5.08045 16.3197 6.2558 15.5447 6.86189 13.7264H10.2398V16.707C10.2398 19.0916 11.7689 21.0317 13.6483 21.0317H17.1382C17.7444 22.85 18.9195 23.6248 19.5954 23.9315C19.6946 23.9767 19.7991 23.9999 19.9045 24C20.112 24 20.315 23.9089 20.4816 23.7338C20.7301 23.4729 20.8484 23.0756 20.7982 22.6716C20.724 22.0734 20.6806 21.5237 20.6684 21.0305C22.5127 20.9784 24 19.059 24 16.707V11.6299C24 9.24514 22.4709 7.30505 20.5915 7.30505ZM23.0625 16.7068C23.0625 18.4357 21.954 19.8422 20.5915 19.8422H20.2005C20.0793 19.8422 19.9627 19.9018 19.8754 20.0086C19.7881 20.1153 19.7367 20.2609 19.7322 20.4146C19.7119 21.1014 19.7562 21.9 19.864 22.7896C19.1816 22.4669 18.3064 21.7658 17.9062 20.2483C17.8751 20.13 17.8154 20.0272 17.7357 19.9543C17.6559 19.8815 17.5601 19.8422 17.4619 19.8422H13.6483C12.2858 19.8422 11.1773 18.4357 11.1773 16.7068V11.6297C11.1773 11.0965 11.2846 10.5701 11.4875 10.1075C11.5174 10.0393 11.5365 9.96421 11.5436 9.88662C11.5507 9.80903 11.5456 9.73043 11.5287 9.65531C11.5119 9.58019 11.4835 9.51002 11.4453 9.44882C11.407 9.38762 11.3596 9.33657 11.3058 9.29861C11.0797 9.13875 10.7942 9.24211 10.6683 9.52907C10.388 10.1682 10.2398 10.8944 10.2398 11.6297V12.5369H6.53813C6.43982 12.5369 6.344 12.5761 6.26423 12.649C6.18445 12.7218 6.12474 12.8247 6.09356 12.943C5.69367 14.4605 4.81842 15.1619 4.13597 15.4843C4.24364 14.5948 4.28798 13.7961 4.26783 13.1093C4.26327 12.9555 4.2119 12.81 4.12453 12.7032C4.03715 12.5965 3.92056 12.5369 3.79927 12.5369H3.40852C2.046 12.5369 0.9375 11.1304 0.9375 9.40174V4.32464C0.9375 2.59591 2.046 1.18948 3.40852 1.18948H12.3968C13.7593 1.18948 14.8678 2.59591 14.8678 4.32464V7.30529H14.2031C13.9442 7.30529 13.7344 7.57155 13.7344 7.90002C13.7344 8.2285 13.9442 8.49476 14.2031 8.49476H20.5915C21.954 8.49476 23.0625 9.9012 23.0625 11.6299V16.7068Z" fill="#008E2C"/>
<path d="M9.73146 4.90563C9.99035 4.90563 10.2002 4.63942 10.2002 4.31089C10.2002 3.98235 9.99035 3.71615 9.73146 3.71615H7.94323V2.82618C7.94323 2.49765 7.73341 2.23145 7.47448 2.23145C7.21573 2.23145 7.00573 2.49765 7.00573 2.82618V3.71615H5.21777C4.95884 3.71615 4.74902 3.98241 4.74902 4.31089C4.74902 4.63936 4.95884 4.90563 5.21777 4.90563H8.32465C8.23587 5.40075 8.01668 6.20013 7.47654 7.10039C7.21652 6.66712 7.03357 6.26312 6.9056 5.91507C6.7961 5.61747 6.51705 5.48877 6.28249 5.62793C6.04798 5.76687 5.94649 6.12068 6.05599 6.41828C6.22559 6.87897 6.47571 7.4228 6.84265 8.0013C6.39199 8.5547 5.81009 9.1197 5.05788 9.65568C4.83213 9.81644 4.75193 10.1788 4.87863 10.4653C4.91938 10.5575 4.97879 10.6343 5.05073 10.6877C5.12266 10.741 5.20452 10.7691 5.28785 10.7689C5.36805 10.769 5.4469 10.7428 5.51674 10.6928C6.33251 10.1117 6.97315 9.49302 7.47673 8.87854C7.97604 9.48909 8.6149 10.1108 9.4323 10.6927C9.48598 10.731 9.54508 10.7555 9.60621 10.7647C9.66734 10.774 9.72931 10.7679 9.78859 10.7468C9.84786 10.7257 9.90328 10.6899 9.95167 10.6416C10.0001 10.5933 10.0405 10.5334 10.0706 10.4653C10.1973 10.1788 10.1169 9.81644 9.89135 9.65568C9.1384 9.11946 8.55832 8.55286 8.11048 8.00201C8.92179 6.72124 9.19043 5.55264 9.27884 4.90563H9.73146ZM12.3158 7.71017H12.3147C12.0559 7.71017 11.8465 7.97644 11.8465 8.30491C11.8465 8.63338 12.0571 8.89965 12.3158 8.89965C12.5747 8.89965 12.7845 8.63344 12.7845 8.30491C12.7845 7.97638 12.5747 7.71017 12.3158 7.71017Z" fill="#008E2C"/>
</svg>
